<svg width="120" height="166" viewBox="0 0 120 166" fill="none" xmlns="http://www.w3.org/2000/svg">
<path fill-rule="evenodd" clip-rule="evenodd" d="M77.2247 55.1015L77.1543 20.0685C77.1133 -0.351009 50.0993 -7.5894 39.854 10.0739L3.0583 73.5111C-3.5482 84.901 2.46376 99.4565 15.1823 102.864L43.1021 110.345L43.1725 145.378C43.2136 165.798 70.2276 173.036 80.4728 155.373L117.269 91.9359C123.875 80.546 117.863 65.9905 105.145 62.5825L77.2247 55.1015ZM67.2402 62.7789L67.3018 93.4246C67.315 100.008 61.0728 104.808 54.7136 103.104L53.0867 102.668L53.0251 72.0223C53.0119 65.4387 59.254 60.639 65.6133 62.3429L67.2402 62.7789ZM67.2194 52.4461C54.8481 49.7726 42.9993 59.2143 43.0251 72.0424L43.0813 99.9871L17.7705 93.2051C11.4112 91.5012 8.40524 84.2234 11.7085 78.5285L48.5042 15.0913C53.6268 6.25964 67.1338 9.8788 67.1544 20.0886L67.2194 52.4461ZM77.2456 65.4598L77.3017 93.4045C77.3275 106.233 65.4787 115.674 53.1075 113.001L53.1725 145.358C53.193 155.568 66.7 159.187 71.8227 150.356L108.618 86.9185C111.922 81.2235 108.916 73.9458 102.556 72.2418L77.2456 65.4598Z" fill="white"/>
</svg>
